<?xml version="1.0" encoding="UTF-8"?>
<svg version="1.1" xmlns="http://www.w3.org/2000/svg" width="383" height="324">
<path d="M0 0 C126.39 0 252.78 0 383 0 C383 106.92 383 213.84 383 324 C256.61 324 130.22 324 0 324 C0 217.08 0 110.16 0 0 Z " fill="#000000" transform="translate(0,0)"/>
<path d="M0 0 C5.82233505 3.66591466 8.9321904 8.52379632 11 15 C12.39193549 24.87669009 10.4896929 33.57827293 4.5625 41.625 C2 44 2 44 -0.359375 44.37109375 C-5.44214142 43.65679965 -8.83061049 39.82883786 -12 36 C-12.89548876 31.67180433 -12.43055917 29.84389598 -10.4375 25.9375 C-8.76648754 23.06788384 -8.76648754 23.06788384 -9 19.8125 C-9.79293428 16.88360671 -9.79293428 16.88360671 -12.125 15.0625 C-15.89161965 13.67048839 -18.15096663 13.93082406 -22 15 C-24.53769925 17.21025418 -24.93239872 18.555763 -25.4375 21.875 C-24.53364241 28.33112561 -20.27991128 31.77007452 -15.55078125 35.7421875 C-10.32535178 40.36745279 -5.47087301 45.41250928 -0.60009766 50.40722656 C0.87101104 51.87160147 2.42678581 53.24960326 3.98828125 54.6171875 C6 57 6 57 6.078125 59.5078125 C4.74631261 62.58642231 3.10917216 64.49239236 0.75 66.875 C-0.01828125 67.67679687 -0.7865625 68.47859375 -1.578125 69.3046875 C-4 71 -4 71 -6.46875 71.0390625 C-9.73111798 69.69988058 -11.68733292 67.93087277 -14.25 65.5 C-14.75088135 65.0265918 -15.2517627 64.55318359 -15.76782227 64.06542969 C-17.52565882 62.39069662 -19.26371293 60.69706168 -21 59 C-21.70431152 58.31615234 -22.40862305 57.63230469 -23.13427734 56.92773438 C-25.41098004 54.71075009 -27.6763913 52.48288134 -29.9375 50.25 C-30.65905273 49.54166016 -31.38060547 48.83332031 -32.12402344 48.10351562 C-40.09461397 40.1440936 -44.99058512 32.93111693 -46.4375 21.5625 C-45.56599618 14.46596889 -43.69284256 8.06816152 -38.375 3.0625 C-26.73091996 -5.85819484 -13.04833509 -6.51341933 0 0 Z " fill="#FAFAFA" transform="translate(210,50)"/>
<path d="M0 0 C2.91048825 0.53950514 3.77023371 1.31228504 5.71484375 3.5078125 C8.01659394 5.98624287 10.30631646 8.27726368 12.90234375 10.4453125 C38.11016595 32.44037305 38.11016595 32.44037305 39.08984375 46.4453125 C38.47642928 55.10282129 34.70540019 63.27574046 28.23046875 69.046875 C20.53500156 74.93357854 12.97112697 76.36665339 3.40234375 75.4453125 C-4.06006182 73.45693477 -11.00008974 68.79898031 -14.984375 62.12109375 C-18.45554428 54.36272593 -18.86698347 47.23521165 -15.91015625 39.2578125 C-13.91087075 34.81729417 -11.89252934 31.05398303 -8.59765625 27.4453125 C-4.99081231 26.93286473 -3.18246484 27.09299662 -0.04296875 28.984375 C0.72273438 29.67273438 1.4884375 30.36109375 2.27734375 31.0703125 C3.05851562 31.74320313 3.8396875 32.41609375 4.64453125 33.109375 C6.89333357 36.09778341 6.84930923 37.78516185 6.40234375 41.4453125 C5.90734375 42.2496875 5.41234375 43.0540625 4.90234375 43.8828125 C2.88223647 47.3338291 2.8302791 49.51236803 3.40234375 53.4453125 C5.98403826 56.40666796 7.5911551 57.31287354 11.46484375 57.9453125 C14.44398574 57.63194793 14.44398574 57.63194793 16.77734375 55.9453125 C18.61166969 53.1232726 19.15610401 50.94209307 18.97680664 47.56835938 C18.27226044 44.96456263 17.2185434 43.70920107 15.3984375 41.7265625 C14.76429932 41.03336914 14.13016113 40.34017578 13.47680664 39.62597656 C9.96088511 35.93005905 6.39393005 32.29272962 2.77734375 28.6953125 C2.04 27.95410156 1.30265625 27.21289062 0.54296875 26.44921875 C-2.39715653 23.51436251 -5.26993801 20.70373925 -8.53515625 18.12890625 C-10.59765625 16.4453125 -10.59765625 16.4453125 -11.97265625 13.2578125 C-11.44708771 7.91453237 -8.82162742 5.83245796 -5.08984375 2.16796875 C-2.59765625 0.4453125 -2.59765625 0.4453125 0 0 Z " fill="#F7F7F7" transform="translate(185.59765625,182.5546875)"/>
<path d="M0 0 C6.99646178 7.31448277 10.11215538 14.62643656 10.0390625 24.65234375 C9.60882502 29.44891024 8.21742754 33.73236246 5.75 37.875 C2.75 39.875 2.75 39.875 0.36328125 39.7421875 C-4.75613434 38.04336798 -8.27709587 34.27669211 -11.25 29.875 C-11.70215893 26.87540994 -11.58145211 24.28803007 -11.328125 21.2734375 C-11.03210829 18.70291775 -11.03210829 18.70291775 -12.8125 16.1875 C-16.38849873 14.26196222 -18.22533984 14.13714564 -22.25 14.875 C-28.01408385 18.5569556 -32.38302404 24.1623679 -36.8828125 29.23046875 C-39.38478782 32.0255798 -41.91144511 34.78470577 -44.5 37.5 C-45.68335938 38.75683594 -45.68335938 38.75683594 -46.890625 40.0390625 C-49.25 41.875 -49.25 41.875 -51.7421875 42.40234375 C-55.1410477 41.68763016 -56.65876176 40.23426509 -59.125 37.8125 C-59.92679688 37.05839844 -60.72859375 36.30429688 -61.5546875 35.52734375 C-63.25 32.875 -63.25 32.875 -63.515625 29.59375 C-61.68140062 24.20430058 -58.23580872 21.25615259 -54.125 17.4375 C-52.61997759 16.00383641 -51.11735172 14.5676526 -49.6171875 13.12890625 C-48.51225952 12.076427 -48.51225952 12.076427 -47.38500977 11.00268555 C-45.30985401 8.93464868 -43.41072504 6.79076267 -41.51953125 4.5546875 C-38.95528255 1.56146567 -36.53301336 -0.61481921 -33.0625 -2.5625 C-31.83466797 -3.27212891 -31.83466797 -3.27212891 -30.58203125 -3.99609375 C-20.20369556 -9.0201122 -9.19343198 -6.01109014 0 0 Z " fill="#FAFAFA" transform="translate(262.25,105.125)"/>
<path d="M0 0 C2.58984375 1.7578125 2.58984375 1.7578125 4.9375 4.125 C5.73027344 4.89070312 6.52304688 5.65640625 7.33984375 6.4453125 C9 9 9 9 9.23046875 11.8125 C7.38684301 16.58836858 4.06723254 19.41970217 0.375 22.875 C-1.03634309 24.22396328 -2.44521167 25.57552038 -3.8515625 26.9296875 C-4.54556152 27.59629395 -5.23956055 28.26290039 -5.95458984 28.94970703 C-8.6087474 31.61020061 -11.03050136 34.44052413 -13.47705078 37.29052734 C-15.20929636 39.23492996 -17.015872 40.84830902 -19.125 42.375 C-19.74632812 42.83648437 -20.36765625 43.29796875 -21.0078125 43.7734375 C-27.6741312 47.87779842 -34.36948241 47.67328096 -42 47 C-48.28728392 45.46550458 -52.82246223 43.03761908 -57 38 C-57.70125 37.21625 -58.4025 36.4325 -59.125 35.625 C-64.51090538 28.08473247 -64.97047332 21.15755145 -64 12 C-62.92989303 8.45707828 -61.67300831 4.67300831 -59 2 C-55.39530207 1.60174725 -53.54501174 1.65499257 -50.4453125 3.6171875 C-44.23757244 9.6577157 -44.23757244 9.6577157 -43.53125 13.6484375 C-43.59275422 15.35517962 -43.69941646 17.06101327 -43.85546875 18.76171875 C-44.1573428 21.18596727 -44.1573428 21.18596727 -42.9375 24.0625 C-41.02301759 26.28510424 -41.02301759 26.28510424 -37.625 27 C-32.73137942 27 -30.37856014 25.23485864 -26.7890625 22.01953125 C-23.22127862 18.3809069 -19.71064366 14.72902071 -16.375 10.875 C-15.25109548 9.58238002 -14.1261019 8.29070612 -13 7 C-12.12021484 5.98292969 -12.12021484 5.98292969 -11.22265625 4.9453125 C-10.63355469 4.30335938 -10.04445312 3.66140625 -9.4375 3 C-8.92058594 2.4225 -8.40367187 1.845 -7.87109375 1.25 C-5.08677056 -0.61009065 -3.27825168 -0.47186956 0 0 Z " fill="#F9F9F9" transform="translate(182,157)"/>
<path d="M0 0 C2.35178904 1.19274115 4.58798201 2.43268888 6.7890625 3.8828125 C7.09502892 7.40652577 7.11832643 9.3465114 5.2421875 12.40234375 C0.81903384 17.00587424 -2.06881959 19.38517924 -8.5859375 19.7578125 C-9.58367187 19.73460938 -10.58140625 19.71140625 -11.609375 19.6875 C-14.20645571 19.64370581 -14.20645571 19.64370581 -15.83642578 21.12988281 C-17.98663311 23.87206551 -17.83952026 26.14691181 -17.71875 29.53808594 C-16.78830916 33.8342176 -13.90139919 36.17624744 -10.7109375 39.0078125 C-9.7511499 39.91055908 -9.7511499 39.91055908 -8.77197266 40.83154297 C-6.94072644 42.54222094 -5.08362104 44.21773653 -3.2109375 45.8828125 C-2.36273438 46.6459375 -1.51453125 47.4090625 -0.640625 48.1953125 C1.98692148 50.51314818 4.65455114 52.7712665 7.3515625 55.0078125 C8.7890625 56.8828125 8.7890625 56.8828125 8.9765625 59.1953125 C7.19730354 63.22205647 4.49203762 66.47205759 0.7890625 68.8828125 C-2.11328125 69.3984375 -2.11328125 69.3984375 -5.2109375 68.8828125 C-7.921875 66.72265625 -7.921875 66.72265625 -10.5859375 63.8203125 C-13.72450724 60.48604746 -16.83527125 57.21937615 -20.3359375 54.2578125 C-29.01867839 46.77207499 -37.18066604 39.66194657 -38.44921875 27.62109375 C-38.69510853 19.58438038 -36.49802274 14.18638007 -31.9609375 7.6328125 C-23.37462351 -0.95350149 -11.69045472 -4.06748181 0 0 Z " fill="#FBFBFB" transform="translate(155.2109375,103.1171875)"/>
<path d="M0 0 C2.43527874 1.73943064 4.36799473 3.85368303 6.375 6.0625 C7.52023285 7.26743616 8.66735885 8.47057591 9.81640625 9.671875 C10.36441895 10.25130859 10.91243164 10.83074219 11.47705078 11.42773438 C13.32931226 13.33997611 15.28209095 15.09167807 17.3125 16.8125 C31.07406274 28.64977643 31.07406274 28.64977643 32.37890625 39.0078125 C32.84503931 47.39820762 31.05163522 53.28593705 26 60 C19.51211715 67.15633138 12.3654141 70.51035276 2.75 71.25 C-2.56682109 70.89554526 -8.13742922 69.86257078 -12 66 C-12.51144808 62.72783215 -12.22450219 61.3486713 -10.41796875 58.54296875 C-4.42541333 52.21457835 -4.42541333 52.21457835 -0.09375 51.5625 C1.80662466 51.64423654 3.70589189 51.7613237 5.6015625 51.91796875 C8.1634058 52.21246749 8.1634058 52.21246749 10.6875 50.5 C12.51435286 47.02028026 12.70904658 43.8075936 12 40 C10.1893623 37.55865683 8.72355811 35.90141117 6.5 33.9375 C5.95263184 33.42364746 5.40526367 32.90979492 4.84130859 32.38037109 C3.24792664 30.89561818 1.63103997 29.44316332 0 28 C-0.78117188 27.30261719 -1.56234375 26.60523438 -2.3671875 25.88671875 C-4.82864767 23.72695506 -7.29838719 21.58116426 -9.8203125 19.4921875 C-12.6189221 17.00598084 -13.92942078 15.27223413 -14.875 11.625 C-13.17335087 4.57531076 -7.63640109 -1.47000721 0 0 Z " fill="#F9F9F9" transform="translate(240,129)"/>
<path d="M0 0 C2.4921875 1.890625 2.4921875 1.890625 4.875 4.25 C5.67679688 5.01828125 6.47859375 5.7865625 7.3046875 6.578125 C9 9 9 9 8.953125 11.58984375 C7.91766532 14.20819877 6.95054635 15.43706238 4.875 17.3125 C2.34425021 19.69468351 -0.00404046 22.09716373 -2.25 24.75 C-6.87421016 30.1186975 -11.9585879 35.02807137 -17 40 C-17.66644531 40.78890625 -18.33289063 41.5778125 -19.01953125 42.390625 C-21 44 -21 44 -23.484375 43.94921875 C-26.24065904 42.90919232 -28.02436222 41.73657235 -30.25 39.8125 C-30.93578125 39.24144531 -31.6215625 38.67039063 -32.328125 38.08203125 C-34.57471675 35.28428965 -35.03599401 33.5904024 -35 30 C-33.47497653 27.75895942 -32.15383878 26.17377392 -30.25 24.3125 C-29.75282471 23.79921143 -29.25564941 23.28592285 -28.7434082 22.75708008 C-27.18013629 21.15249471 -25.59355184 19.57447032 -24 18 C-23.00862381 17.00830287 -22.01772392 16.01612933 -21.02734375 15.0234375 C-19.17590486 13.17136855 -17.31688187 11.32807553 -15.453125 9.48828125 C-13.34398497 7.34891469 -11.36733595 5.1748773 -9.4375 2.875 C-6.10461441 -1.05609583 -4.85549511 -1.50053202 0 0 Z " fill="#FAFAFA" transform="translate(235,156)"/>
<path d="M0 0 C3.17222234 0.74970528 4.77271682 2.07686785 7.1796875 4.26171875 C8.34757812 5.28845703 8.34757812 5.28845703 9.5390625 6.3359375 C11.68067715 8.87136146 12.34549095 10.26424204 12.4296875 13.57421875 C11.3828125 15.42578125 11.3828125 15.42578125 9.6796875 17.19921875 C9.03515625 17.88242188 8.390625 18.565625 7.7265625 19.26953125 C1.0994302 25.91920482 1.0994302 25.91920482 -1.50512695 28.4909668 C-4.28427392 31.24418083 -6.94716624 34.05458533 -9.5078125 37.01171875 C-10.05179688 37.63949219 -10.59578125 38.26726562 -11.15625 38.9140625 C-12.32808193 40.28983203 -13.48274826 41.68020149 -14.6328125 43.07421875 C-17.40765627 45.22248489 -19.12473015 44.95894021 -22.5703125 44.57421875 C-25.125 42.78125 -25.125 42.78125 -27.4453125 40.38671875 C-28.22648438 39.60941406 -29.00765625 38.83210938 -29.8125 38.03125 C-31.5703125 35.57421875 -31.5703125 35.57421875 -32.11328125 33.07421875 C-31.34846715 29.55277253 -29.6381643 28.18822809 -27.0078125 25.76171875 C-23.92336231 22.83256955 -20.93417718 19.95459389 -18.1953125 16.69921875 C-15.04760841 13.05687545 -11.78523087 9.53998029 -8.4453125 6.07421875 C-7.94209473 5.53297363 -7.43887695 4.99172852 -6.92041016 4.43408203 C-4.71322065 2.17747241 -3.1200552 0.69703361 0 0 Z " fill="#F8F8F8" transform="translate(177.5703125,103.42578125)"/>
<path d="M0 0 C4.39691811 1.64334814 6.84906978 4.39596011 10 7.79296875 C11.23641409 9.07992145 12.47467998 10.36509777 13.71484375 11.6484375 C14.30378418 12.26251465 14.89272461 12.8765918 15.49951172 13.50927734 C17.43397957 15.48325971 19.45832955 17.31424733 21.5625 19.10546875 C24.11966323 21.29811195 26.66091766 23.49544466 29.125 25.79296875 C29.99125 26.58574219 29.99125 26.58574219 30.875 27.39453125 C32.61222619 29.85922091 32.60346407 31.20775179 32.125 34.16796875 C30.55078125 36.58984375 30.55078125 36.58984375 28.4375 38.91796875 C27.75300781 39.6965625 27.06851563 40.47515625 26.36328125 41.27734375 C23.82280557 43.42322548 22.44394049 44.0996994 19.125 44.16796875 C17.16796875 43.015625 17.16796875 43.015625 15.3125 41.23046875 C14.62542969 40.58207031 13.93835938 39.93367188 13.23046875 39.265625 C12.53566406 38.57339844 11.84085938 37.88117188 11.125 37.16796875 C10.46113281 36.50667969 9.79726562 35.84539062 9.11328125 35.1640625 C7.78124948 33.82679681 6.45315138 32.48560195 5.12890625 31.140625 C3.16821766 29.21051245 1.14680286 27.40061977 -0.9375 25.60546875 C-2.25112444 24.46092469 -3.56362824 23.31509315 -4.875 22.16796875 C-5.55433594 21.58015625 -6.23367187 20.99234375 -6.93359375 20.38671875 C-7.57425781 19.79890625 -8.21492187 19.21109375 -8.875 18.60546875 C-9.4525 18.08855469 -10.03 17.57164062 -10.625 17.0390625 C-12.48509065 14.25473931 -12.34686956 12.44622043 -11.875 9.16796875 C-10.1171875 6.578125 -10.1171875 6.578125 -7.75 4.23046875 C-6.98429688 3.43769531 -6.21859375 2.64492187 -5.4296875 1.828125 C-2.875 0.16796875 -2.875 0.16796875 0 0 Z " fill="#F7F7F7" transform="translate(184.875,129.83203125)"/>
<path d="M0 0 C5.44395364 1.53111196 8.97232644 5.23691813 13 9 C13.76828125 9.680625 14.5365625 10.36125 15.328125 11.0625 C16.06546875 11.743125 16.8028125 12.42375 17.5625 13.125 C18.24441406 13.74632813 18.92632812 14.36765625 19.62890625 15.0078125 C21 17 21 17 20.953125 19.46875 C19.82411415 22.46710668 18.45045396 24.11624447 16.1875 26.375 C15.50042969 27.08398438 14.81335938 27.79296875 14.10546875 28.5234375 C12 30 12 30 9.953125 29.9609375 C7.50987797 28.75885996 6.27924464 27.35925669 4.5625 25.25 C1.84284851 21.99685611 -0.95882695 18.96114218 -4 16 C-5.66666667 14.33333333 -7.33333333 12.66666667 -9 11 C-7.59155282 7.78475695 -5.89655214 5.67816132 -3.375 3.25 C-2.74335938 2.63640625 -2.11171875 2.0228125 -1.4609375 1.390625 C-0.73777344 0.70226562 -0.73777344 0.70226562 0 0 Z " fill="#FCFCFC" transform="translate(184,79)"/>
<path d="M0 0 C3.36335594 1.45745424 5.54534005 3.31117854 8.109375 5.9140625 C8.86347656 6.67460937 9.61757812 7.43515625 10.39453125 8.21875 C11.17183594 9.0128125 11.94914062 9.806875 12.75 10.625 C13.54277344 11.42679688 14.33554688 12.22859375 15.15234375 13.0546875 C17.10614493 15.03202846 19.05512103 17.01388909 21 19 C20.06409496 20.1055189 19.12620142 21.20935453 18.1875 22.3125 C17.66542969 22.92738281 17.14335937 23.54226562 16.60546875 24.17578125 C16.07566406 24.77777344 15.54585937 25.37976563 15 26 C14.28263672 26.88751953 14.28263672 26.88751953 13.55078125 27.79296875 C12 29 12 29 10.06933594 28.92602539 C7.4418109 27.75021104 5.90317604 26.24188459 3.890625 24.18359375 C3.13652344 23.41982422 2.38242188 22.65605469 1.60546875 21.86914062 C0.82816406 21.06669922 0.05085937 20.26425781 -0.75 19.4375 C-1.54277344 18.63119141 -2.33554688 17.82488281 -3.15234375 16.99414062 C-5.10847046 15.00266222 -7.05725719 13.00452279 -9 11 C-7.49053489 7.81913482 -5.92058175 5.70130094 -3.375 3.25 C-2.74335938 2.63640625 -2.11171875 2.0228125 -1.4609375 1.390625 C-0.73777344 0.70226562 -0.73777344 0.70226562 0 0 Z " fill="#FBFBFB" transform="translate(194,197)"/>
<path d="M0 0 C7 6 7 6 10 9 C8.63182521 14.64372103 4.47393096 17.6874917 0 21 C-5.2349706 24.0052609 -11.01906557 25.32793474 -17 24 C-17.99 22.68 -18.98 21.36 -20 20 C-13.4 13.4 -6.8 6.8 0 0 Z " fill="#FCFCFC" transform="translate(258,175)"/>
<path d="M0 0 C0.66 0.33 1.32 0.66 2 1 C1.92458984 1.56702637 1.84917969 2.13405273 1.77148438 2.71826172 C1.50776937 6.18495484 1.33364589 8.90645353 3.18359375 11.94238281 C4.86982161 13.79249223 6.62783229 15.46343337 8.5 17.125 C9.1398584 17.72683105 9.7797168 18.32866211 10.43896484 18.94873047 C12.27021106 20.65940844 14.12731646 22.33492403 16 24 C16.84820312 24.763125 17.69640625 25.52625 18.5703125 26.3125 C21.19785898 28.63033568 23.86548864 30.888454 26.5625 33.125 C28 35 28 35 28.1875 37.3125 C26.40824104 41.33924397 23.70297512 44.58924509 20 47 C17.06640625 47.48046875 17.06640625 47.48046875 14 47 C11.4453125 45.03125 11.4453125 45.03125 9.125 42.5 C8.34382812 41.6646875 7.56265625 40.829375 6.7578125 39.96875 C6.17773438 39.3190625 5.59765625 38.669375 5 38 C5.88945312 37.61714844 5.88945312 37.61714844 6.796875 37.2265625 C9.21224538 35.88183502 10.51211706 34.50785633 12.25 32.375 C12.77078125 31.74335938 13.2915625 31.11171875 13.828125 30.4609375 C14.21484375 29.97882813 14.6015625 29.49671875 15 29 C8.80281523 21.54084305 1.89583408 14.802507 -5 8 C-4.01 8 -3.02 8 -2 8 C-1.67 8.33 -1.34 8.66 -1 9 C-0.67 6.03 -0.34 3.06 0 0 Z " fill="#F9F9F9" transform="translate(136,125)"/>
<path d="M0 0 C1.1055189 0.93590504 2.20935453 1.87379858 3.3125 2.8125 C4.23482422 3.59560547 4.23482422 3.59560547 5.17578125 4.39453125 C8.55149502 7.3654485 8.55149502 7.3654485 10 9 C10.16487806 11.96780514 9.42783252 13.50291 7.50390625 15.73828125 C6.28240034 16.96504095 5.03675572 18.16818256 3.76953125 19.34765625 C1.8616418 21.06577137 1.8616418 21.06577137 -0.125 23.5 C-2 25 -2 25 -4.375 25.0625 C-8.63250438 23.33922442 -12.02216801 20.95911921 -14.10546875 16.78515625 C-13.95324794 12.76539938 -11.91961562 11.30674027 -9.11132812 8.58398438 C-8.43521484 7.95814453 -7.75910156 7.33230469 -7.0625 6.6875 C-6.39025391 6.04232422 -5.71800781 5.39714844 -5.02539062 4.73242188 C-3.36289417 3.14066995 -1.68807156 1.56453095 0 0 Z " fill="#FAFAFA" transform="translate(216,175)"/>
<path d="M0 0 C5.02612331 0.47233448 7.09663852 3.09940739 10.453125 6.65234375 C12.88711529 10.26081406 12.95225548 12.80535119 12.4609375 17.04296875 C12.23245715 19.40529241 12.54188529 21.05445173 13.2421875 23.3046875 C11.1796875 21.8046875 11.1796875 21.8046875 9.2421875 19.3046875 C9.28265503 16.5729623 9.80475795 14.01179865 10.2421875 11.3046875 C9.41074219 12.20832031 8.57929688 13.11195313 7.72265625 14.04296875 C6.62503327 15.23440566 5.52737518 16.42581021 4.4296875 17.6171875 C3.88248047 18.21208984 3.33527344 18.80699219 2.77148438 19.41992188 C2.23974609 19.99677734 1.70800781 20.57363281 1.16015625 21.16796875 C0.42962036 21.96134644 0.42962036 21.96134644 -0.31567383 22.77075195 C-0.79157959 23.27695068 -1.26748535 23.78314941 -1.7578125 24.3046875 C-2.27174561 24.86438232 -2.78567871 25.42407715 -3.31518555 26.00073242 C-4.7578125 27.3046875 -4.7578125 27.3046875 -6.7578125 27.3046875 C-9.09644563 20.2887881 -8.8245042 11.75161882 -5.8203125 4.9921875 C-3.44189064 0.38026554 -3.44189064 0.38026554 0 0 Z " fill="#F3F3F3" transform="translate(125.7578125,158.6953125)"/>
<path d="M0 0 C1.98 1.65 3.96 3.3 6 5 C5.40902366 8.35024672 4.32487228 10.09361551 2.015625 12.56640625 C1.40976563 13.21673828 0.80390625 13.86707031 0.1796875 14.53710938 C-0.45710938 15.20548828 -1.09390625 15.87386719 -1.75 16.5625 C-2.68199219 17.57086914 -2.68199219 17.57086914 -3.6328125 18.59960938 C-9.0129697 24.31460758 -12.71631315 27.27860167 -20.8125 27.6875 C-21.97394531 27.75324219 -23.13539063 27.81898438 -24.33203125 27.88671875 C-25.65267578 27.94279297 -25.65267578 27.94279297 -27 28 C-21.75541414 21.63409696 -15.97902678 15.86429388 -10.125 10.0625 C-9.14039081 9.08291763 -8.156014 8.10310163 -7.171875 7.12304688 C-4.78351797 4.74639748 -2.39284788 2.37212644 0 0 Z " fill="#FAFAFA" transform="translate(173,175)"/>
<path d="M0 0 C3.13833491 4.70750237 2.55444172 9.48898288 2 15 C0.62258204 20.10933853 -0.51381487 24.00920991 -5 27 C-10.56230261 26.69908855 -13.51897697 23.45662616 -17.23828125 19.6328125 C-19.30644055 16.54203785 -19.452759 15.09032423 -19.0625 11.4375 C-18.75636662 9.94765088 -18.41824745 8.46233961 -18 7 C-17.67 7 -17.34 7 -17 7 C-16.67 9.97 -16.34 12.94 -16 16 C-13.7226499 13.18490007 -13.7226499 13.18490007 -14 10 C-12.68 10 -11.36 10 -10 10 C-7.31699563 7.8027454 -7.31699563 7.8027454 -4.75 5 C-3.85796875 4.071875 -2.9659375 3.14375 -2.046875 2.1875 C-1.03367187 1.1046875 -1.03367187 1.1046875 0 0 Z " fill="#F2F2F2" transform="translate(270,118)"/>
<path d="M0 0 C1.98 1.65 3.96 3.3 6 5 C5.43379699 8.77468671 3.87731019 10.47551893 1.18359375 13.109375 C0.41982422 13.86347656 -0.34394531 14.61757812 -1.13085938 15.39453125 C-2.33452148 16.56048828 -2.33452148 16.56048828 -3.5625 17.75 C-4.77196289 18.93916016 -4.77196289 18.93916016 -6.00585938 20.15234375 C-7.99733778 22.10847046 -9.99547721 24.05725719 -12 26 C-14.49361571 24.79618552 -16.68143083 23.54571278 -19 22 C-18.44387545 18.11863416 -16.72326862 16.37243082 -13.96484375 13.671875 C-12.75151367 12.47304687 -12.75151367 12.47304687 -11.51367188 11.25 C-10.66353516 10.425 -9.81339844 9.6 -8.9375 8.75 C-8.08349609 7.90953125 -7.22949219 7.0690625 -6.34960938 6.203125 C-4.23964588 4.12852403 -2.12300292 2.06124168 0 0 Z " fill="#FEFEFE" transform="translate(229,104)"/>
<path d="M0 0 C0.33 0 0.66 0 1 0 C1.33 1.65 1.66 3.3 2 5 C2.99 5 3.98 5 5 5 C-1.27 11.27 -7.54 17.54 -14 24 C-12.33045181 27.22404978 -12.33045181 27.22404978 -9.375 27.6875 C-8.59125 27.790625 -7.8075 27.89375 -7 28 C-7 28.33 -7 28.66 -7 29 C-12.82248856 29.37164821 -17.64814628 28.37617945 -23 26 C-25 24 -25 24 -25.36328125 21.67578125 C-24.74702961 17.13672346 -21.91750523 14.88978351 -18.71875 11.8125 C-14.82880271 9.2192018 -11.92241149 9.53948657 -7.39453125 9.92578125 C-4.82519564 10.22610371 -4.82519564 10.22610371 -2.375 8.375 C-0.74916306 5.56673619 -0.29229968 3.21529643 0 0 Z " fill="#EBEBEB" transform="translate(253,171)"/>
<path d="M0 0 C0.98484375 0.00902344 1.9696875 0.01804687 2.984375 0.02734375 C4.10585937 0.04474609 4.10585937 0.04474609 5.25 0.0625 C4.86328125 0.50980469 4.4765625 0.95710938 4.078125 1.41796875 C1.06609925 4.9146026 -1.89321031 8.43657463 -4.75 12.0625 C-2.44 14.3725 -0.13 16.6825 2.25 19.0625 C0.93 19.3925 -0.39 19.7225 -1.75 20.0625 C-1.9975 19.44375 -2.245 18.825 -2.5 18.1875 C-3.97047178 15.68769797 -5.16403076 15.22933978 -7.75 14.0625 C-8.2847998 14.5972998 -8.81959961 15.13209961 -9.37060547 15.68310547 C-15.49707031 21.80957031 -21.62353516 27.93603516 -27.75 34.0625 C-30.75 31.0625 -33.75 28.0625 -36.75 25.0625 C-36.10933594 24.4334375 -35.46867188 23.804375 -34.80859375 23.15625 C-30.77442161 19.16416311 -26.81948636 15.22941838 -23.25 10.8125 C-17.07230608 3.57828836 -9.39810115 -0.11188216 0 0 Z M-14.75 5.0625 C-17.92875647 8.15449031 -21.09082746 11.26301282 -24.25 14.375 C-25.15621094 15.25607422 -26.06242188 16.13714844 -26.99609375 17.04492188 C-28.28193359 18.31625977 -28.28193359 18.31625977 -29.59375 19.61328125 C-30.38974609 20.39356689 -31.18574219 21.17385254 -32.00585938 21.9777832 C-34.07083813 23.99297104 -34.07083813 23.99297104 -33.75 27.0625 C-31.3109294 29.26392332 -31.3109294 29.26392332 -28.75 31.0625 C-23.70654232 28.82673318 -20.30634112 25.02577082 -16.4375 21.1875 C-15.68404297 20.46691406 -14.93058594 19.74632812 -14.15429688 19.00390625 C-13.44724609 18.30394531 -12.74019531 17.60398437 -12.01171875 16.8828125 C-11.36162842 16.24617676 -10.71153809 15.60954102 -10.04174805 14.95361328 C-8.56617609 13.17047038 -8.56617609 13.17047038 -8.73364258 11.07373047 C-10.15296431 8.26508949 -12.22497407 6.87533913 -14.75 5.0625 Z " fill="#EAEAEA" transform="translate(243.75,98.9375)"/>
<path d="M0 0 C7.24579719 -0.67090715 11.75838097 1.41874318 18 5 C18.29891202 8.50081702 18.32010469 10.46649218 16.48828125 13.51953125 C11.86628389 18.39046922 8.75715661 20.55512949 1.9375 21.0625 C-0.04167114 21.08290383 -2.0221996 21.07642196 -4 21 C-2.52278578 17.54798361 -0.56205999 15.35038064 2.125 12.75 C2.84945312 12.04359375 3.57390625 11.3371875 4.3203125 10.609375 C4.87460938 10.07828125 5.42890625 9.5471875 6 9 C4.38617243 5.59787701 2.41396234 2.89675481 0 0 Z " fill="#EDEDED" transform="translate(144,102)"/>
<path d="M0 0 C1.32 1.65 2.64 3.3 4 5 C2.9790625 5.0309375 2.9790625 5.0309375 1.9375 5.0625 C-2.46915407 6.46887896 -4.94762374 9.6309507 -8 13 C-6.69645236 15.86293173 -5.67192847 17.32807153 -3.375 19.625 C-1 22 -1 22 -1 24 C-0.443125 24.226875 0.11375 24.45375 0.6875 24.6875 C3.66159588 26.37550036 5.72008865 28.46676517 8 31 C8 31.66 8 32.32 8 33 C12.96547903 32.84953094 15.20583628 30.16908414 18.44921875 26.7890625 C20.17471464 24.87425116 20.17471464 24.87425116 22 22 C22.66 22.99 23.32 23.98 24 25 C23.45730469 25.45890625 22.91460937 25.9178125 22.35546875 26.390625 C21.64003906 27.00421875 20.92460937 27.6178125 20.1875 28.25 C19.47980469 28.85328125 18.77210938 29.4565625 18.04296875 30.078125 C16.08110329 31.92370398 14.54330375 33.79945332 13 36 C15.77762123 39.60062011 18.73991357 42.83047153 22 46 C17.28529239 45.52513736 15.14426984 43.71970739 11.75 40.5 C11.24911865 40.0265918 10.7482373 39.55318359 10.23217773 39.06542969 C8.47434118 37.39069662 6.73628707 35.69706168 5 34 C4.29568848 33.31615234 3.59137695 32.63230469 2.86572266 31.92773438 C0.58901996 29.71075009 -1.6763913 27.48288134 -3.9375 25.25 C-4.65905273 24.54166016 -5.38060547 23.83332031 -6.12402344 23.10351562 C-10.24498828 18.98832513 -13.84896733 14.90845793 -17 10 C-17 9.34 -17 8.68 -17 8 C-14.50638429 9.20381448 -12.31856917 10.45428722 -10 12 C-8.51476358 10.56877218 -7.03699538 9.12979111 -5.5625 7.6875 C-4.73878906 6.88699219 -3.91507813 6.08648437 -3.06640625 5.26171875 C-0.80596523 3.09529192 -0.80596523 3.09529192 0 0 Z " fill="#EEEEEE" transform="translate(184,75)"/>
<path d="M0 0 C1.1055189 0.93590504 2.20935453 1.87379858 3.3125 2.8125 C3.92738281 3.33457031 4.54226562 3.85664063 5.17578125 4.39453125 C6.85424679 5.87172469 8.43882034 7.40039131 10 9 C8.59928507 14.29158974 5.14512755 16.77478044 1 20 C-2.42895648 18.32948274 -5.27561256 16.72438744 -8 14 C-8.8125 11.25 -8.8125 11.25 -8 8 C-5.56061586 5.06850583 -2.86088249 2.51604398 0 0 Z " fill="#FCFCFC" transform="translate(183,185)"/>
<path d="M0 0 C1.09896528 1.09896528 2.19570529 2.20019582 3.28515625 3.30859375 C4.61772456 4.62294928 5.98748798 5.89963896 7.37109375 7.16015625 C8.19738281 7.93230469 9.02367187 8.70445313 9.875 9.5 C10.67679688 10.2321875 11.47859375 10.964375 12.3046875 11.71875 C14 14 14 14 13.8828125 16.65625 C13 19 13 19 11 21 C7.77578158 21.48227805 6.34358032 21.21029956 3.54296875 19.49609375 C-2.80356021 13.94945899 -2.80356021 13.94945899 -3.75 9.375 C-2.96728381 5.85277712 -1.81935698 3.10806817 0 0 Z " fill="#F4F4F4" transform="translate(201,73)"/>
<path d="M0 0 C-2.61427305 2.6190611 -5.23318818 5.23280715 -7.8671875 7.83203125 C-12.87502379 12.78711877 -17.78271211 17.74187638 -22.3359375 23.125 C-24.85786406 25.96660739 -27.62365277 28.547969 -30.3984375 31.140625 C-32.10886774 33.12639279 -32.60340432 34.43912502 -33 37 C-35 34 -35 34 -34.86328125 31.59765625 C-33.82172453 28.46356024 -32.44626484 26.84277932 -30.1875 24.4375 C-29.38054687 23.57382813 -28.57359375 22.71015625 -27.7421875 21.8203125 C-24.28576509 18.26541651 -20.78452741 14.7582502 -17.25512695 11.27587891 C-14.50164297 8.54867798 -11.86440582 5.78274459 -9.375 2.8125 C-5.98185898 -1.20569332 -4.91690568 -1.16453029 0 0 Z " fill="#E8E8E8" transform="translate(235,156)"/>
<path d="M0 0 C0.66 0.33 1.32 0.66 2 1 C1.92458984 1.56702637 1.84917969 2.13405273 1.77148438 2.71826172 C1.50776937 6.18495484 1.33364589 8.90645353 3.18359375 11.94238281 C4.86982161 13.79249223 6.62783229 15.46343337 8.5 17.125 C9.1398584 17.72683105 9.7797168 18.32866211 10.43896484 18.94873047 C12.27021106 20.65940844 14.12731646 22.33492403 16 24 C16.84820312 24.763125 17.69640625 25.52625 18.5703125 26.3125 C21.19785898 28.63033568 23.86548864 30.888454 26.5625 33.125 C28 35 28 35 27.75 37.75 C27.5025 38.4925 27.255 39.235 27 40 C25.9790625 38.948125 25.9790625 38.948125 24.9375 37.875 C22.92315613 35.84930771 20.82918698 34.00359085 18.625 32.1875 C15.46089993 29.51018456 12.85146854 26.58905945 10.17578125 23.43359375 C5.36770769 18.05580232 0.13387365 13.06439265 -5 8 C-4.01 8 -3.02 8 -2 8 C-1.67 8.33 -1.34 8.66 -1 9 C-0.67 6.03 -0.34 3.06 0 0 Z " fill="#E5E5E5" transform="translate(136,125)"/>
<path d="M0 0 C4.29238623 1.65091778 6.8793915 4.73754566 10 8 C8.59155282 11.21524305 6.89655214 13.32183868 4.375 15.75 C3.42753906 16.67039063 3.42753906 16.67039063 2.4609375 17.609375 C1.97882813 18.06828125 1.49671875 18.5271875 1 19 C0.01 18.67 -0.98 18.34 -2 18 C-2.054138 15.75026553 -2.09285491 13.50015617 -2.125 11.25 C-2.14820312 9.99703125 -2.17140625 8.7440625 -2.1953125 7.453125 C-2.01537302 4.27179508 -1.68998582 2.63478104 0 0 Z " fill="#FBFBFB" transform="translate(120,165)"/>
<path d="M0 0 C1.010625 0.268125 2.02125 0.53625 3.0625 0.8125 C4.01125 0.998125 4.96 1.18375 5.9375 1.375 C6.63875 1.519375 7.34 1.66375 8.0625 1.8125 C4.85489749 5.61885497 1.65503891 9.35813567 -1.9375 12.8125 C-4.40550047 11.66076645 -5.98533565 10.76466435 -7.9375 8.8125 C-7.77154227 5.65930322 -7.08334699 4.01776613 -5.25 1.4375 C-2.9375 -0.1875 -2.9375 -0.1875 0 0 Z " fill="#F6F6F6" transform="translate(239.9375,181.1875)"/>
<path d="M0 0 C2.93453261 0.36681658 3.86437246 0.86437246 6 3 C5.76973552 5.37939963 5.19972552 6.73157908 3.7734375 8.6484375 C2 10 2 10 -0.48046875 10.07421875 C-1.82044922 9.88279297 -1.82044922 9.88279297 -3.1875 9.6875 C-4.08855469 9.56761719 -4.98960937 9.44773437 -5.91796875 9.32421875 C-6.60503906 9.21722656 -7.29210937 9.11023438 -8 9 C-7.04270084 7.87411986 -6.08412105 6.7493285 -5.125 5.625 C-4.59132812 4.99851562 -4.05765625 4.37203125 -3.5078125 3.7265625 C-2.38567993 2.44163349 -1.20628025 1.20628025 0 0 Z " fill="#FAFAFA" transform="translate(151,112)"/>
<path d="M0 0 C1.09570312 0.00902344 2.19140625 0.01804687 3.3203125 0.02734375 C4.16335937 0.03894531 5.00640625 0.05054687 5.875 0.0625 C4.9669838 1.19449353 4.04816174 2.31782363 3.125 3.4375 C2.61453125 4.06398438 2.1040625 4.69046875 1.578125 5.3359375 C-0.20699481 7.14562318 -1.80449644 8.06367455 -4.125 9.0625 C-5.775 7.4125 -7.425 5.7625 -9.125 4.0625 C-8.795 3.0725 -8.465 2.0825 -8.125 1.0625 C-5.36047967 -0.31976016 -3.0788637 -0.03275387 0 0 Z " fill="#FAFAFA" transform="translate(240.125,99.9375)"/>
<path d="M0 0 C0.515625 0.680625 1.03125 1.36125 1.5625 2.0625 C4.50071413 5.60342473 7.70787019 8.79109819 11 12 C11.61875 11.690625 12.2375 11.38125 12.875 11.0625 C14.25 10.375 15.625 9.6875 17 9 C17 11.97 17 14.94 17 18 C15.35 17.34 13.7 16.68 12 16 C11.45730469 16.56589844 10.91460937 17.13179687 10.35546875 17.71484375 C9.64003906 18.44832031 8.92460938 19.18179688 8.1875 19.9375 C7.47980469 20.66839844 6.77210937 21.39929688 6.04296875 22.15234375 C4 24 4 24 1 25 C1 24.34 1 23.68 1 23 C3.00398137 21.14363333 5.12124992 19.46503696 7.25 17.75390625 C9.35315902 16.05899225 9.35315902 16.05899225 9 13 C7.31079274 10.86996143 7.31079274 10.86996143 5.125 8.8125 C4.40570313 8.09707031 3.68640625 7.38164063 2.9453125 6.64453125 C1.16999054 4.78480051 1.16999054 4.78480051 -1 5 C-0.67 3.35 -0.34 1.7 0 0 Z " fill="#F0F0F0" transform="translate(119,117)"/>
<path d="M0 0 C3.48331435 3.01887244 4.79157144 5.56909529 6 10 C2.89448334 10 1.64738916 9.4606285 -1 8 C-7.29174837 13.15897548 -7.29174837 13.15897548 -10 20.5 C-10 21.655 -10 22.81 -10 24 C-10.33 24 -10.66 24 -11 24 C-11.89626501 20.91208695 -12.39281782 18.20886241 -12 15 C-10.19604369 12.75041077 -8.30203412 11.20892411 -5.98046875 9.5078125 C-3.75199507 7.98116371 -3.75199507 7.98116371 -2 5 C-2.66 4.01 -3.32 3.02 -4 2 C-1.525 2.99 -1.525 2.99 1 4 C0.67 2.68 0.34 1.36 0 0 Z " fill="#E3E3E3" transform="translate(216,211)"/>
<path d="M0 0 C0.33 0 0.66 0 1 0 C1.33 1.65 1.66 3.3 2 5 C2.99 5 3.98 5 5 5 C2.19469153 7.8546576 -0.61707696 10.70277231 -3.43505859 13.54492188 C-4.39324956 14.51318538 -5.34963982 15.48323426 -6.30419922 16.45507812 C-7.6746382 17.8497097 -9.05206367 19.23746521 -10.4296875 20.625 C-11.25710449 21.46289062 -12.08452148 22.30078125 -12.93701172 23.1640625 C-15 25 -15 25 -17 25 C-17 24.34 -17 23.68 -17 23 C-15.35546875 21.37890625 -15.35546875 21.37890625 -13.1875 19.5625 C-10.68897282 17.45536324 -8.2757944 15.34758602 -6 13 C-7.32 12.34 -8.64 11.68 -10 11 C-8.329375 10.5978125 -8.329375 10.5978125 -6.625 10.1875 C-2.78159049 9.34190981 -2.78159049 9.34190981 -1 6 C-0.60986284 4.0103005 -0.26797351 2.00980131 0 0 Z " fill="#F1F1F1" transform="translate(253,171)"/>
<path d="M0 0 C0.33 0.66 0.66 1.32 1 2 C0.56171875 2.36609375 0.1234375 2.7321875 -0.328125 3.109375 C-4.86092524 6.97883862 -9.15525695 11.04553665 -13.375 15.25 C-14.16052246 16.02875488 -14.16052246 16.02875488 -14.96191406 16.82324219 C-17.2530536 19.12333732 -19.19258392 21.28887588 -21 24 C-21.66 23.34 -22.32 22.68 -23 22 C-22.35933594 21.3709375 -21.71867188 20.741875 -21.05859375 20.09375 C-16.97185413 16.04964402 -12.94879952 12.03031179 -9.25 7.625 C-6.45910496 4.35017304 -3.70693982 2.16991599 0 0 Z " fill="#E0E0E0" transform="translate(230,102)"/>
<path d="M0 0 C0.66 0.66 1.32 1.32 2 2 C1.20335937 2.67095703 1.20335937 2.67095703 0.390625 3.35546875 C-3.45708163 6.64848775 -7.11417103 9.79149942 -10 14 C-10 14.66 -10 15.32 -10 16 C-9.34 16 -8.68 16 -8 16 C-8.33 16.66 -8.66 17.32 -9 18 C-13.42094803 14.27653164 -17.57833482 10.70478962 -21 6 C-18.72707059 7.01889939 -17.16975439 7.80902631 -15.5 9.6875 C-14.10981639 11.21317588 -14.10981639 11.21317588 -12.234375 10.8984375 C-8.99893567 9.59747413 -7.15463953 7.43705951 -4.75 4.9375 C-3.85796875 4.01839844 -2.9659375 3.09929687 -2.046875 2.15234375 C-1.37140625 1.44207031 -0.6959375 0.73179687 0 0 Z " fill="#DADADA" transform="translate(249,139)"/>
<path d="M0 0 C2.625 0.6875 2.625 0.6875 4.625 3.6875 C3.86574219 3.86925781 3.10648438 4.05101562 2.32421875 4.23828125 C0.83341797 4.61533203 0.83341797 4.61533203 -0.6875 5 C-2.16669922 5.36544922 -2.16669922 5.36544922 -3.67578125 5.73828125 C-6.37641012 6.68799589 -7.58456216 7.50597677 -9.375 9.6875 C-10.035 9.3575 -10.695 9.0275 -11.375 8.6875 C-4.54974066 0.92679902 -4.54974066 0.92679902 0 0 Z " fill="#E6E6E6" transform="translate(179.375,156.3125)"/>
<path d="M0 0 C4.27124556 0.47458284 6.20508608 2.91842825 9 6 C10.02813611 7.31175986 11.04084432 8.6369893 12 10 C7.31266455 9.71591906 4.79071085 7.48550729 1.35546875 4.5703125 C0 3 0 3 0 0 Z " fill="#DEDEDE" transform="translate(194,111)"/>
<path d="M0 0 C5.40049736 0.31767632 7.52337065 3.19996327 11 7 C10.67 7.99 10.34 8.98 10 10 C2.51708428 3.84965831 2.51708428 3.84965831 0 0 Z " fill="#FBFBFB" transform="translate(185,184)"/>
<path d="M0 0 C0.99 0.33 1.98 0.66 3 1 C0.36 3.97 -2.28 6.94 -5 10 C-5.66 9.01 -6.32 8.02 -7 7 C-6.54625 6.566875 -6.0925 6.13375 -5.625 5.6875 C-3.79975666 3.89201658 -3.79975666 3.89201658 -2 1 C-1.34 0.67 -0.68 0.34 0 0 Z " fill="#E6E6E6" transform="translate(175,129)"/>
<path d="M0 0 C0.33 0 0.66 0 1 0 C1.9375 3.125 1.9375 3.125 2 7 C0.08595342 9.66944182 -2.10440575 11.46116492 -5 13 C-7.9375 12.875 -7.9375 12.875 -10 12 C-10 11.67 -10 11.34 -10 11 C-8.329375 10.5978125 -8.329375 10.5978125 -6.625 10.1875 C-2.78159049 9.34190981 -2.78159049 9.34190981 -1 6 C-0.60986284 4.0103005 -0.26797351 2.00980131 0 0 Z " fill="#C8C8C8" transform="translate(253,171)"/>
<path d="M0 0 C2.93415579 0.81883417 5.81139762 1.74670847 8.6875 2.75 C8.6875 3.08 8.6875 3.41 8.6875 3.75 C3.49540596 3.96192221 -0.439239 3.3412689 -5.3125 1.75 C-2.3125 -0.25 -2.3125 -0.25 0 0 Z " fill="#B5B5B5" transform="translate(237.3125,196.25)"/>
<path d="M0 0 C2.84383123 1.2748209 5.13754018 2.45137078 7 5 C6.6875 7.1875 6.6875 7.1875 6 9 C2.91910327 6.22719294 1.31224548 3.93673644 0 0 Z " fill="#E5E5E5" transform="translate(167,83)"/>
<path d="M0 0 C0.99 0.33 1.98 0.66 3 1 C0.69 3.31 -1.62 5.62 -4 8 C-4.66 7.34 -5.32 6.68 -6 6 C-4.02 4.02 -2.04 2.04 0 0 Z " fill="#DEDEDE" transform="translate(183,121)"/>
<path d="M0 0 C0.33 0.66 0.66 1.32 1 2 C1.66 2.33 2.32 2.66 3 3 C0 5 0 5 -2 5 C-3.62514468 6.45833358 -3.62514468 6.45833358 -5 8 C-5.66 7.67 -6.32 7.34 -7 7 C-4.69 4.69 -2.38 2.38 0 0 Z " fill="#333333" transform="translate(180,181)"/>
<path d="M0 0 C0.66 0.33 1.32 0.66 2 1 C1.98839844 1.67546875 1.97679687 2.3509375 1.96484375 3.046875 C1.95582031 3.93890625 1.94679687 4.8309375 1.9375 5.75 C1.92589844 6.63171875 1.91429687 7.5134375 1.90234375 8.421875 C1.99173802 10.7818838 2.33087179 12.74498524 3 15 C0.9375 13.6875 0.9375 13.6875 -1 11 C-1.05898893 7.27297245 -0.58315738 3.67642697 0 0 Z " fill="#DEDEDE" transform="translate(136,167)"/>
<path d="M0 0 C-0.33 2.31 -0.66 4.62 -1 7 C-2.65 5.35 -4.3 3.7 -6 2 C-2.25 0 -2.25 0 0 0 Z " fill="#D6D6D6" transform="translate(188,151)"/>
</svg>
